<?xml version="1.0" standalone="no"?><!DOCTYPE svg PUBLIC "-//W3C//DTD SVG 1.1//EN" "http://www.w3.org/Graphics/SVG/1.1/DTD/svg11.dtd"><svg t="1562837410805" class="icon" viewBox="0 0 1024 1024" version="1.1" xmlns="http://www.w3.org/2000/svg" p-id="2644" xmlns:xlink="http://www.w3.org/1999/xlink" width="200" height="200"><defs><style type="text/css"></style></defs><path d="M540.12638339 85.94345938v838.0340165c0 13.22578828-12.59229463 23.94345937-28.11934423 23.94345938s-28.11934424-10.71767198-28.11934336-23.94345938V85.94345938C483.8876958 72.71767198 496.47999043 62 512.00703916 62s28.11934424 10.71767198 28.11934424 23.94345937z" fill="#707070" p-id="2645"></path><path d="M174.51027178 568.2386876a28.02884502 28.02884502 0 0 1 19.88393115 8.23541221l317.61283623 317.62576493 317.61283711-317.61283622a28.11934424 28.11934424 0 0 1 39.7678623 39.76786231L531.89097119 953.75165908a28.11934424 28.11934424 0 0 1-39.76786318 0L154.62634063 616.25489082a28.11934424 28.11934424 0 0 1 19.88393114-48.01620322z" fill="#707070" p-id="2646"></path></svg>