<?xml version="1.0" standalone="no"?><!DOCTYPE svg PUBLIC "-//W3C//DTD SVG 1.1//EN" "http://www.w3.org/Graphics/SVG/1.1/DTD/svg11.dtd"><svg t="1562837246817" class="icon" viewBox="0 0 1024 1024" version="1.1" xmlns="http://www.w3.org/2000/svg" p-id="1983" xmlns:xlink="http://www.w3.org/1999/xlink" width="200" height="200"><defs><style type="text/css"></style></defs><path d="M484.11546523 938.0436418V100.06237461c0-13.22577158 12.59227881-23.94343037 28.11930909-23.94343037s28.11930908 10.71765879 28.11930908 23.94343037v837.98126719c0 13.22577158-12.59227881 23.94343037-28.11930908 23.94342948s-28.11930908-10.71765879-28.11930909-23.94342948z" fill="#707070" p-id="1984"></path><path d="M849.73112598 455.74900948a28.02880987 28.02880987 0 0 1-19.88390743-8.23540255L512.23477432 129.88823487 194.62233096 447.50067911a28.11930908 28.11930908 0 1 1-39.76781396-39.74195743L492.35086777 70.23651435a28.11930908 28.11930908 0 0 1 39.76781397 0l337.49635078 337.52220733a28.11930908 28.11930908 0 0 1-19.88390654 48.01614434z" fill="#707070" p-id="1985"></path></svg>